Coordinates
version=1
nRows=42
nColumns=38
inDegrees=no

Units are S.I. units (second, meters, Newtons, ...)
If the header above contains a line with 'inDegrees', this indicates whether rotational values are in degrees (yes) or radians (no).

endheader
time	pelvis_tilt	pelvis_list	pelvis_rotation	pelvis_tx	pelvis_ty	pelvis_tz	hip_flexion_r	hip_adduction_r	hip_rotation_r	knee_angle_r	ankle_angle_r	subtalar_angle_r	mtp_angle_r	hip_flexion_l	hip_adduction_l	hip_rotation_l	knee_angle_l	ankle_angle_l	subtalar_angle_l	mtp_angle_l	lumbar_extension	lumbar_bending	lumbar_rotation	arm_flex_r	arm_add_r	arm_rot_r	elbow_flex_r	pro_sup_r	wrist_flex_r	wrist_dev_r	arm_flex_l	arm_add_l	arm_rot_l	elbow_flex_l	pro_sup_l	wrist_flex_l	wrist_dev_l
0	2.69585	1.32576	-1.23501	0.681319	-0.486883	0.950899	-0.296708	0.0868912	-0.169704	0.000372772	-0.0726736	0	0	-0.346586	-0.109314	-0.317656	0	0.0118975	0	0	-0.343686	0.0601845	0.163565	0.0738028	-0.284048	0.811812	0.39016	1.06046	0	0	0.0154075	-0.224132	0.301271	0.521907	1.54276	0	0
0.01	2.69774	1.32642	-1.23633	0.681215	-0.486766	0.9509	-0.296277	0.0863007	-0.170502	0.000424728	-0.0725539	0	0	-0.345894	-0.10887	-0.316502	0	0.0126896	0	0	-0.343678	0.060307	0.16239	0.0747096	-0.284778	0.814796	0.391539	1.06125	0	0	0.0161919	-0.222178	0.307802	0.512342	1.54717	0	0
0.02	2.69822	1.32712	-1.23671	0.681171	-0.486627	0.950876	-0.295672	0.0859567	-0.17083	0.000428958	-0.0726024	0	0	-0.345211	-0.108578	-0.316383	0	0.0134728	0	0	-0.343405	0.0606288	0.161854	0.0754017	-0.285641	0.81727	0.392976	1.0614	0	0	0.0162714	-0.220618	0.313856	0.504639	1.55279	0	0
0.03	2.69813	1.32783	-1.23634	0.681092	-0.486484	0.950854	-0.295083	0.085786	-0.171384	0.000392704	-0.0725799	0	0	-0.344435	-0.108403	-0.316188	0	0.014098	0	0	-0.343013	0.0611141	0.161205	0.0757334	-0.286531	0.818669	0.394494	1.06074	0	0	0.0158329	-0.219531	0.32	0.498799	1.55906	0	0
0.04	2.69915	1.32811	-1.23681	0.680984	-0.486384	0.950859	-0.295051	0.0855678	-0.172037	0.000324196	-0.0725991	0	0	-0.34413	-0.10814	-0.315822	0	0.0144637	0	0	-0.343192	0.0613437	0.160299	0.0761223	-0.28741	0.819903	0.396179	1.05962	0	0	0.0161024	-0.21884	0.327633	0.49431	1.56529	0	0
0.05	2.69907	1.32829	-1.23641	0.680898	-0.486245	0.950846	-0.295053	0.0855643	-0.172381	0.000269907	-0.0727262	0	0	-0.343894	-0.108092	-0.315937	0	0.0145147	0	0	-0.343225	0.0618731	0.159737	0.0764727	-0.288416	0.821832	0.3977	1.0582	0	0	0.0167118	-0.21816	0.33626	0.489982	1.56949	0	0
0.06	2.69753	1.32882	-1.23463	0.68078	-0.486069	0.950782	-0.294604	0.0857113	-0.172719	0.000194055	-0.0726885	0	0	-0.343266	-0.108241	-0.315949	0	0.0142452	0	0	-0.342689	0.0628766	0.159182	0.0769159	-0.289358	0.823704	0.398524	1.05647	0	0	0.0168648	-0.217331	0.344324	0.485984	1.5708	0	0
0.07	2.69673	1.32934	-1.23354	0.680681	-0.485906	0.950706	-0.29426	0.0857134	-0.173003	6.83566e-05	-0.0724939	0	0	-0.342761	-0.108251	-0.315793	0	0.0135809	0	0	-0.34222	0.0635599	0.158659	0.0770564	-0.289949	0.823203	0.399183	1.0542	0	0	0.0168438	-0.216795	0.351465	0.483548	1.5708	0	0
0.08	2.69888	1.32929	-1.23519	0.680611	-0.48584	0.9507	-0.294661	0.0853123	-0.173546	0	-0.0723146	0	0	-0.342961	-0.107812	-0.315788	0	0.0127734	0	0	-0.342798	0.0634567	0.15794	0.0772817	-0.290106	0.820576	0.399891	1.0515	0	0	0.0172473	-0.216658	0.358012	0.482609	1.5708	0	0
0.09	2.70022	1.32898	-1.23574	0.680505	-0.485748	0.950701	-0.295225	0.0852239	-0.174182	0	-0.072094	0	0	-0.343216	-0.107707	-0.315544	0	0.0109427	0	0	-0.343554	0.0637271	0.156985	0.0774879	-0.290322	0.817611	0.400665	1.04935	0	0	0.0174408	-0.21688	0.364842	0.483159	1.5708	0	0
0.1	2.69951	1.32909	-1.23417	0.680317	-0.485721	0.950672	-0.295175	0.0854329	-0.174729	0	-0.0719148	0	0	-0.342846	-0.107864	-0.314665	0	0.00712596	0	0	-0.343624	0.0646435	0.156211	0.0774519	-0.290802	0.815107	0.401344	1.04812	0	0	0.0170122	-0.217303	0.372078	0.484326	1.5708	0	0
0.11	2.69844	1.32911	-1.23216	0.680135	-0.485571	0.950631	-0.295211	0.0857579	-0.175196	0	-0.0714704	0	0	-0.342493	-0.108123	-0.313501	0	0.00275993	0	0	-0.343656	0.0657314	0.155584	0.0772465	-0.291318	0.812808	0.401867	1.04719	0	0	0.0166012	-0.217718	0.378768	0.485851	1.5708	0	0
0.12	2.69837	1.32864	-1.23118	0.679971	-0.485433	0.950637	-0.295891	0.0860145	-0.17548	0	-0.0712075	0	0	-0.342908	-0.108317	-0.313065	0	-0.000564752	0	0	-0.344228	0.0666346	0.155132	0.0769584	-0.291684	0.810901	0.402241	1.04639	0	0	0.0164405	-0.218244	0.384984	0.487865	1.5708	0	0
0.13	2.69917	1.328	-1.231	0.679801	-0.485376	0.950626	-0.296844	0.0861561	-0.175874	0	-0.0709459	0	0	-0.343678	-0.108411	-0.312542	0	-0.00271602	0	0	-0.345067	0.0672245	0.15485	0.0766131	-0.291603	0.807749	0.402041	1.04441	0	0	0.0167963	-0.218936	0.390969	0.491488	1.5708	0	0
0.14	2.7002	1.32741	-1.23096	0.679606	-0.485331	0.950612	-0.297692	0.086162	-0.176524	0	-0.0709771	0	0	-0.344523	-0.108379	-0.311975	0	-0.00415928	0	0	-0.345924	0.0678287	0.154599	0.076423	-0.290884	0.800921	0.40063	1.03986	0	0	0.0170844	-0.219445	0.39637	0.495942	1.5708	0	0
0.15	2.70097	1.32675	-1.23093	0.679431	-0.485224	0.950625	-0.298604	0.0861702	-0.176748	0	-0.0706296	0	0	-0.345617	-0.108377	-0.311666	0	-0.00522912	0	0	-0.346908	0.0685596	0.154862	0.0766667	-0.289673	0.791264	0.397779	1.03356	0	0	0.0172816	-0.219558	0.400222	0.498847	1.5708	0	0
0.16	2.70275	1.32588	-1.23207	0.679299	-0.485203	0.950663	-0.299841	0.0860674	-0.176984	0	-0.0700705	0	0	-0.347138	-0.10823	-0.31145	0	-0.00631854	0	0	-0.348291	0.0688904	0.15517	0.0769738	-0.288721	0.786034	0.395382	1.03161	0	0	0.0178573	-0.219301	0.40023	0.501554	1.5708	0	0
0.17	2.7042	1.32512	-1.23265	0.679133	-0.485143	0.95068	-0.300898	0.0860084	-0.177488	0	-0.069766	0	0	-0.3484	-0.108192	-0.311049	0	-0.00712659	0	0	-0.349529	0.0692722	0.155097	0.0770406	-0.288302	0.782986	0.394289	1.03216	0	0	0.0184922	-0.219115	0.399207	0.505076	1.5708	0	0
0.18	2.70477	1.32454	-1.23195	0.678886	-0.485083	0.950685	-0.301681	0.0861405	-0.178045	0	-0.0691561	0	0	-0.349271	-0.108424	-0.310063	0	-0.00768256	0	0	-0.350519	0.0700142	0.154817	0.0768769	-0.288267	0.780412	0.394001	1.03313	0	0	0.0190835	-0.21896	0.398232	0.50858	1.5708	0	0
0.19	2.70528	1.32429	-1.23114	0.678646	-0.485038	0.950668	-0.302072	0.0862448	-0.178631	0	-0.068829	0	0	-0.349716	-0.108614	-0.308846	0	-0.00800301	0	0	-0.351287	0.0707071	0.154377	0.0769451	-0.288036	0.778178	0.393399	1.03398	0	0	0.0194072	-0.219003	0.397024	0.512291	1.5708	0	0
0.2	2.7053	1.32396	-1.23013	0.678478	-0.485008	0.950664	-0.302457	0.0864796	-0.179106	8.31898e-05	-0.0687951	0	0	-0.350266	-0.108985	-0.307978	0	-0.00805293	0	0	-0.352108	0.0713843	0.154344	0.0769587	-0.287604	0.775731	0.392684	1.03451	0	0	0.0198184	-0.219164	0.39561	0.51628	1.5708	0	0
0.21	2.70412	1.32381	-1.22804	0.678307	-0.484913	0.950617	-0.302624	0.0868897	-0.179365	0.000144616	-0.0685334	0	0	-0.350425	-0.109479	-0.307192	0	-0.00816646	0	0	-0.35248	0.0722412	0.154718	0.0767233	-0.287208	0.773602	0.391921	1.03482	0	0	0.0203126	-0.219182	0.393814	0.520226	1.5708	0	0
0.22	2.70255	1.32378	-1.2256	0.678137	-0.484828	0.950543	-0.30261	0.0873434	-0.179603	0.00019022	-0.0684068	0	0	-0.350374	-0.109978	-0.306528	0	-0.00818946	0	0	-0.352721	0.0730866	0.155287	0.0764845	-0.286824	0.771672	0.391221	1.03485	0	0	0.0210155	-0.219132	0.391566	0.524179	1.5708	0	0
0.23	2.7023	1.32353	-1.22418	0.677972	-0.484794	0.950495	-0.302852	0.0876716	-0.180335	0.000255477	-0.0682391	0	0	-0.35049	-0.110386	-0.30544	0	-0.00821138	0	0	-0.353543	0.073602	0.155271	0.0765763	-0.286295	0.769462	0.390876	1.03429	0	0	0.0224912	-0.21908	0.38899	0.527545	1.5708	0	0
0.24	2.70522	1.32317	-1.22521	0.67772	-0.484883	0.950517	-0.303436	0.0874069	-0.1817	0.000266894	-0.0681611	0	0	-0.350633	-0.11028	-0.30333	0	-0.00853816	0	0	-0.354975	0.0734941	0.15444	0.0769469	-0.285748	0.767276	0.391047	1.03303	0	0	0.0243716	-0.219201	0.386203	0.531172	1.5708	0	0
0.25	2.70774	1.32225	-1.22623	0.677454	-0.484937	0.950598	-0.304686	0.0873358	-0.18243	7.5579e-05	-0.068974	0	0	-0.351516	-0.110332	-0.301637	0	-0.00896184	0	0	-0.35693	0.073732	0.154128	0.0773352	-0.285629	0.766573	0.391463	1.03136	0	0	0.0261945	-0.219178	0.383746	0.534867	1.5708	0	0
0.26	2.6702	1.30469	-1.18715	0.676528	-0.485801	0.952823	-0.317422	0.103236	-0.189253	0	-0.0866629	0	0	-0.364496	-0.126888	-0.304794	0	-0.0106232	0	0	-0.375806	0.0912894	0.158544	0.0820058	-0.289691	0.766379	0.392384	1.02879	0	0	0.0327018	-0.214383	0.382157	0.535787	1.5708	0	0
0.27	2.67126	1.30418	-1.18755	0.676404	-0.485769	0.952832	-0.318093	0.103266	-0.189732	0	-0.0865806	0	0	-0.365099	-0.126941	-0.304305	0	-0.0104355	0	0	-0.376993	0.0912218	0.15936	0.082098	-0.289256	0.765299	0.392431	1.02583	0	0	0.0347122	-0.214445	0.380294	0.540152	1.5708	0	0
0.28	2.67216	1.30399	-1.18778	0.676252	-0.485752	0.952865	-0.318408	0.103192	-0.190229	0	-0.0867727	0	0	-0.365295	-0.126915	-0.303554	0	-0.010534	0	0	-0.377935	0.0912319	0.159933	0.0823343	-0.288807	0.764105	0.39247	1.02296	0	0	0.0368509	-0.214297	0.378471	0.543277	1.5708	0	0
0.29	2.67302	1.3041	-1.18787	0.676084	-0.485733	0.952889	-0.318411	0.103053	-0.190798	0	-0.0869286	0	0	-0.365071	-0.126787	-0.303016	0	-0.0108015	0	0	-0.378634	0.0912498	0.159934	0.0829134	-0.288133	0.762584	0.392257	1.02015	0	0	0.0389968	-0.214006	0.376413	0.545787	1.5708	0	0
0.3	2.67379	1.30436	-1.18775	0.675906	-0.485717	0.95288	-0.318265	0.102889	-0.191483	0	-0.0871732	0	0	-0.364569	-0.126639	-0.302243	0	-0.0112157	0	0	-0.379065	0.0911751	0.160077	0.0831859	-0.287368	0.760258	0.391977	1.01761	0	0	0.0411525	-0.213755	0.374149	0.548924	1.5708	0	0
0.31	2.675	1.30437	-1.18845	0.675793	-0.485648	0.952885	-0.318522	0.102663	-0.192192	0	-0.0872821	0	0	-0.364664	-0.126357	-0.301625	0	-0.0114629	0	0	-0.379632	0.0908307	0.160861	0.0831648	-0.286434	0.757098	0.391555	1.01546	0	0	0.0431944	-0.213732	0.372385	0.552673	1.5708	0	0
0.32	2.67568	1.30465	-1.18882	0.675654	-0.485538	0.952866	-0.318445	0.102381	-0.192986	0	-0.0873447	0	0	-0.364504	-0.125949	-0.301858	0	-0.0113413	0	0	-0.379853	0.0906057	0.161688	0.083286	-0.285789	0.755072	0.391336	1.01526	0	0	0.0451732	-0.213658	0.371383	0.555968	1.5708	0	0
0.33	2.6766	1.30486	-1.18933	0.675503	-0.485443	0.952868	-0.318396	0.102092	-0.193606	0	-0.0880793	0	0	-0.364469	-0.125594	-0.301611	0	-0.0112953	0	0	-0.380111	0.0904434	0.162209	0.0837824	-0.28557	0.757623	0.391346	1.01938	0	0	0.0473929	-0.213341	0.370638	0.558406	1.5708	0	0
0.34	2.67623	1.30499	-1.18883	0.675392	-0.485279	0.952843	-0.318473	0.102121	-0.193799	0	-0.0884107	0	0	-0.364456	-0.125553	-0.301602	0	-0.0111945	0	0	-0.380164	0.0905996	0.162831	0.0842131	-0.285774	0.768528	0.391696	1.02911	0	0	0.0490048	-0.213063	0.369478	0.561428	1.5708	0	0
0.35	2.67706	1.30494	-1.18926	0.675265	-0.485153	0.952835	-0.31883	0.101977	-0.194384	0	-0.0888258	0	0	-0.364605	-0.12529	-0.301329	0	-0.0112724	0	0	-0.380618	0.0905722	0.163369	0.084482	-0.285676	0.783601	0.391588	1.03806	0	0	0.050695	-0.213093	0.369174	0.564933	1.5708	0	0
0.36	2.67855	1.30496	-1.19018	0.675091	-0.485019	0.952812	-0.319156	0.101647	-0.195319	0	-0.0889723	0	0	-0.364756	-0.124896	-0.300884	0	-0.0114127	0	0	-0.38105	0.0903789	0.163786	0.0847118	-0.284793	0.787363	0.391193	1.03395	0	0	0.0524254	-0.213129	0.369458	0.568015	1.5708	0	0
0.37	2.68001	1.3049	-1.19106	0.674949	-0.484864	0.952809	-0.319596	0.101383	-0.196023	0	-0.0891424	0	0	-0.365063	-0.124595	-0.300077	0	-0.0115809	0	0	-0.381418	0.0900984	0.164469	0.0842552	-0.281933	0.776342	0.389025	1.01853	0	0	0.054371	-0.213058	0.36997	0.570567	1.5708	0	0
0.38	2.67997	1.30524	-1.19049	0.674859	-0.484633	0.952784	-0.319578	0.101423	-0.196468	0	-0.0894041	0	0	-0.364945	-0.124577	-0.298872	0	-0.0114781	0	0	-0.381136	0.0898434	0.166451	0.0818443	-0.272001	0.730902	0.377883	0.98256	0	0	0.057038	-0.212575	0.371083	0.572448	1.5708	0	0
0.39	2.67585	1.30948	-1.18556	0.674731	-0.484024	0.952633	-0.315444	0.101119	-0.197166	0	-0.0898879	0	0	-0.360504	-0.124258	-0.297443	0	-0.0115522	0	0	-0.374352	0.0872184	0.161762	0.0969563	-0.2533	0.584095	0.344684	0.883924	0	0	0.053552	-0.213456	0.365003	0.576793	1.5708	0	0
0.4	2.68179	1.30339	-1.19164	0.674424	-0.48429	0.952883	-0.322148	0.101321	-0.195947	0	-0.089775	0	0	-0.367282	-0.124474	-0.299212	0	-0.0110102	0	0	-0.383184	0.0911434	0.165131	0.087528	-0.28433	0.797089	0.392526	1.03665	0	0	0.0568516	-0.211692	0.365482	0.581008	1.5708	0	0
0.41	2.6841	1.30268	-1.19337	0.674238	-0.484138	0.952913	-0.323329	0.100922	-0.196184	0	-0.0899566	0	0	-0.368392	-0.124219	-0.298612	0	-0.0111173	0	0	-0.384279	0.0910216	0.164943	0.0885813	-0.284473	0.800975	0.393824	1.031	0	0	0.0580962	-0.211034	0.363492	0.582923	1.5708	0	0
